<?xml version="1.0" standalone="no"?>
<!DOCTYPE svg PUBLIC "-//W3C//DTD SVG 20010904//EN"
 "http://www.w3.org/TR/2001/REC-SVG-20010904/DTD/svg10.dtd">
<svg version="1.0" xmlns="http://www.w3.org/2000/svg"
 width="360.000000pt" height="360.000000pt" viewBox="0 0 360.000000 360.000000"
 preserveAspectRatio="xMidYMid meet">
<metadata>
Created by potrace 1.11, written by Peter Selinger 2001-2013
</metadata>
<g transform="translate(0.000000,360.000000) scale(0.100000,-0.100000)"
fill="#000000" stroke="none">
<path d="M709 3585 c-1 -8 -2 -18 -3 -22 -2 -5 -7 -26 -13 -48 -17 -65 -86
-358 -89 -380 -1 -11 -6 -31 -12 -45 -5 -14 -10 -28 -10 -33 -1 -12 -14 -74
-33 -147 -6 -25 -12 -52 -14 -60 -4 -16 -32 -140 -40 -175 -2 -11 -16 -67 -31
-125 -14 -58 -28 -116 -30 -129 -3 -14 -19 -81 -36 -150 -33 -137 -36 -150
-43 -183 -9 -46 -77 -334 -87 -373 -6 -22 -12 -47 -14 -55 -1 -8 -5 -26 -9
-40 -3 -14 -8 -36 -11 -50 -3 -14 -12 -52 -21 -85 -8 -33 -16 -67 -18 -75 -2
-8 -11 -46 -20 -85 -9 -38 -19 -81 -22 -95 -8 -40 -9 -44 -16 -65 -3 -11 -8
-31 -11 -45 -3 -14 -7 -34 -10 -45 -35 -156 -50 -217 -59 -250 -12 -46 -10
-39 -22 -90 -4 -22 -9 -44 -11 -50 -1 -5 -7 -30 -13 -55 -6 -26 -11 -165 -11
-337 l0 -293 544 0 c586 0 551 -3 557 45 1 6 5 20 10 33 5 12 11 33 13 45 9
48 36 137 75 252 23 66 43 125 45 130 17 54 90 221 138 320 102 207 229 404
363 564 87 105 181 206 259 280 27 25 58 55 70 66 12 11 41 36 66 55 25 19 47
37 50 40 11 12 147 97 180 112 83 39 133 58 138 54 2 -3 13 -1 23 5 28 14 142
21 171 10 38 -14 77 -60 90 -106 6 -22 11 -42 11 -45 -1 -3 -4 -32 -7 -65 -3
-33 -7 -69 -10 -80 -2 -11 -7 -40 -11 -65 -4 -25 -9 -54 -12 -65 -2 -11 -6
-31 -9 -45 -2 -14 -7 -36 -11 -50 -4 -14 -8 -32 -9 -40 -1 -8 -7 -37 -14 -65
-6 -27 -14 -61 -16 -75 -3 -14 -10 -43 -16 -65 -6 -22 -12 -45 -13 -50 -2 -9
-21 -90 -107 -450 -10 -44 -28 -120 -39 -170 -11 -49 -26 -115 -34 -145 -8
-30 -16 -66 -18 -80 -3 -14 -10 -45 -17 -70 -7 -25 -14 -56 -17 -70 -2 -14
-15 -66 -27 -117 l-24 -92 604 -1 604 0 0 1090 0 1089 -27 14 c-32 16 -129 50
-188 66 -80 22 -123 25 -315 25 -175 -1 -241 -5 -320 -19 -14 -3 -38 -7 -55
-10 -391 -70 -729 -294 -1084 -720 -46 -55 -93 -111 -105 -125 -11 -14 -34
-42 -49 -63 -54 -72 -59 -49 -21 103 14 58 28 113 30 123 6 27 11 46 38 152
15 55 28 109 30 120 2 11 14 58 26 105 12 47 24 93 26 103 2 9 6 26 9 37 3 11
7 28 9 38 4 14 60 245 72 291 10 43 103 415 160 646 36 143 67 269 69 280 2
11 4 20 5 20 2 0 8 26 15 64 4 19 11 45 16 59 5 14 7 27 4 30 -2 3 -1 10 4 16
4 6 11 23 15 39 l6 27 -630 0 c-553 0 -630 -2 -631 -15z"/>
</g>
</svg>
